<?xml version="1.0" encoding="UTF-8"?>
<svg width="960" height="232" viewBox="0 0 960 232" fill="none" xmlns="http://www.w3.org/2000/svg">
  <defs>
    <linearGradient id="beam-dark" x1="0" y1="0" x2="960" y2="232" gradientUnits="userSpaceOnUse">
      <stop stop-color="#60a5fa" stop-opacity="0.18" />
      <stop offset="1" stop-color="#60a5fa" stop-opacity="0" />
    </linearGradient>
  </defs>
  <rect x="0" y="0" width="960" height="232" rx="28" fill="url(#beam-dark)" opacity="0.42" />
  <g transform="translate(24 18)">
    <rect x="0" y="0" rx="24" ry="24" width="442" height="196" fill="#111827" stroke="#263244" />
    <circle cx="34" cy="34" r="10" fill="#1d4ed8" />
    <circle cx="34" cy="34" r="5.5" fill="#60a5fa" />
    <text x="56" y="40" fill="#f8fafc" font-family="Segoe UI, Arial, sans-serif" font-size="24" font-weight="700">harness-first-agentic</text>
    <text x="56" y="66" fill="#f8fafc" font-family="Segoe UI, Arial, sans-serif" font-size="24" font-weight="700">development</text>
    <rect x="28" y="68" rx="999" ry="999" width="84" height="28" fill="#0f172a" stroke="#263244" />
    <text x="70" y="87" text-anchor="middle" fill="#60a5fa" font-family="Segoe UI, Arial, sans-serif" font-size="13" font-weight="700">Code</text>
    <text x="28" y="122" fill="#cbd5e1" font-family="Segoe UI, Arial, sans-serif" font-size="16" font-weight="500">AI-first framework and template</text>
    <text x="28" y="150" fill="#cbd5e1" font-family="Segoe UI, Arial, sans-serif" font-size="16" font-weight="500">repo for agentic engineering, AI</text>
    <line x1="28" y1="162" x2="414" y2="162" stroke="#263244" />
    <text x="28" y="184" fill="#7c8aa5" font-family="Segoe UI, Arial, sans-serif" font-size="13" font-weight="600">Recently updated</text>
    <text x="414" y="184" text-anchor="end" fill="#7c8aa5" font-family="Segoe UI, Arial, sans-serif" font-size="13" font-weight="600">2026-03-15</text>
  </g>

  <g transform="translate(494 18)">
    <rect x="0" y="0" rx="24" ry="24" width="442" height="196" fill="#111827" stroke="#263244" />
    <circle cx="34" cy="34" r="10" fill="#1d4ed8" />
    <circle cx="34" cy="34" r="5.5" fill="#60a5fa" />
    <text x="56" y="40" fill="#f8fafc" font-family="Segoe UI, Arial, sans-serif" font-size="24" font-weight="700">offerpilot-ai</text>
    <rect x="28" y="68" rx="999" ry="999" width="108" height="28" fill="#0f172a" stroke="#263244" />
    <text x="82" y="87" text-anchor="middle" fill="#60a5fa" font-family="Segoe UI, Arial, sans-serif" font-size="13" font-weight="700">TypeScript</text>
    <text x="28" y="122" fill="#cbd5e1" font-family="Segoe UI, Arial, sans-serif" font-size="16" font-weight="500">AI interview preparation copilot</text>
    <text x="28" y="150" fill="#cbd5e1" font-family="Segoe UI, Arial, sans-serif" font-size="16" font-weight="500">for AI and product role seekers.</text>
    <line x1="28" y1="162" x2="414" y2="162" stroke="#263244" />
    <text x="28" y="184" fill="#7c8aa5" font-family="Segoe UI, Arial, sans-serif" font-size="13" font-weight="600">Recently updated</text>
    <text x="414" y="184" text-anchor="end" fill="#7c8aa5" font-family="Segoe UI, Arial, sans-serif" font-size="13" font-weight="600">2026-03-15</text>
  </g>
</svg>